<mxfile host="app.diagrams.net" modified="2021-01-26T07:55:04.228Z" agent="5.0 (Macintosh; Intel Mac OS X 10_15_4) AppleWebKit/537.36 (KHTML, like Gecko) Chrome/87.0.4280.141 Safari/537.36" etag="5aMxCkXXcqD8Hhax3-AB" version="14.1.1" type="github">
  <diagram id="HtbQRe1uYgksSqaX1MDL" name="Page-1">
    <mxGraphModel dx="1722" dy="943" grid="1" gridSize="10" guides="1" tooltips="1" connect="1" arrows="1" fold="1" page="1" pageScale="1" pageWidth="827" pageHeight="1169" math="0" shadow="0">
      <root>
        <mxCell id="0" />
        <mxCell id="1" parent="0" />
        <mxCell id="SneHzdqeoLvJgb-y5VjT-8" value="" style="shape=cylinder3;whiteSpace=wrap;html=1;boundedLbl=1;backgroundOutline=1;size=15;fillColor=#dae8fc;strokeColor=#6c8ebf;" vertex="1" parent="1">
          <mxGeometry x="510" y="190" width="230" height="180" as="geometry" />
        </mxCell>
        <mxCell id="SneHzdqeoLvJgb-y5VjT-10" style="edgeStyle=orthogonalEdgeStyle;rounded=0;orthogonalLoop=1;jettySize=auto;html=1;" edge="1" parent="1" source="SneHzdqeoLvJgb-y5VjT-1" target="SneHzdqeoLvJgb-y5VjT-3">
          <mxGeometry relative="1" as="geometry" />
        </mxCell>
        <mxCell id="SneHzdqeoLvJgb-y5VjT-1" value="Athens" style="rounded=0;whiteSpace=wrap;html=1;fillColor=#f8cecc;strokeColor=#b85450;" vertex="1" parent="1">
          <mxGeometry x="240" y="240" width="100" height="40" as="geometry" />
        </mxCell>
        <mxCell id="SneHzdqeoLvJgb-y5VjT-9" style="edgeStyle=orthogonalEdgeStyle;rounded=0;orthogonalLoop=1;jettySize=auto;html=1;entryX=0;entryY=0.5;entryDx=0;entryDy=0;" edge="1" parent="1" source="SneHzdqeoLvJgb-y5VjT-3" target="SneHzdqeoLvJgb-y5VjT-4">
          <mxGeometry relative="1" as="geometry" />
        </mxCell>
        <mxCell id="SneHzdqeoLvJgb-y5VjT-3" value="TDW" style="rounded=0;whiteSpace=wrap;html=1;fillColor=#f8cecc;strokeColor=#b85450;" vertex="1" parent="1">
          <mxGeometry x="380" y="240" width="100" height="40" as="geometry" />
        </mxCell>
        <mxCell id="SneHzdqeoLvJgb-y5VjT-11" style="edgeStyle=orthogonalEdgeStyle;rounded=0;orthogonalLoop=1;jettySize=auto;html=1;" edge="1" parent="1" source="SneHzdqeoLvJgb-y5VjT-4" target="SneHzdqeoLvJgb-y5VjT-5">
          <mxGeometry relative="1" as="geometry" />
        </mxCell>
        <mxCell id="SneHzdqeoLvJgb-y5VjT-4" value="StatisticsTable" style="rounded=0;whiteSpace=wrap;html=1;fillColor=#d5e8d4;strokeColor=#82b366;" vertex="1" parent="1">
          <mxGeometry x="570" y="240" width="120" height="40" as="geometry" />
        </mxCell>
        <mxCell id="SneHzdqeoLvJgb-y5VjT-12" style="edgeStyle=orthogonalEdgeStyle;rounded=0;orthogonalLoop=1;jettySize=auto;html=1;entryX=1;entryY=0.5;entryDx=0;entryDy=0;" edge="1" parent="1" source="SneHzdqeoLvJgb-y5VjT-5" target="SneHzdqeoLvJgb-y5VjT-6">
          <mxGeometry relative="1" as="geometry">
            <Array as="points">
              <mxPoint x="835" y="330" />
            </Array>
          </mxGeometry>
        </mxCell>
        <mxCell id="SneHzdqeoLvJgb-y5VjT-5" value="&lt;font color=&quot;rgba(0, 0, 0, 0)&quot; face=&quot;monospace&quot;&gt;&lt;span style=&quot;font-size: 0px&quot;&gt;%3CmxGraphModel%3E%3Croot%3E%3CmxCell%20id%3D%220%22%2F%3E%3CmxCell%20id%3D%221%22%20parent%3D%220%22%2F%3E%3CmxCell%20id%3D%222%22%20value%3D%22%E7%BB%9F%E8%AE%A1%E6%89%93%E5%88%86Server%22%20style%3D%22rounded%3D0%3BwhiteSpace%3Dwrap%3Bhtml%3D1%3B%22%20vertex%3D%221%22%20parent%3D%221%22%3E%3CmxGeometry%20x%3D%22490%22%20y%3D%22340%22%20width%3D%22100%22%20height%3D%2240%22%20as%3D%22geometry%22%2F%3E%3C%2FmxCell%3E%3C%2Froot%3E%3C%2FmxGraphModel%3EStatisticalScore&lt;/span&gt;&lt;/font&gt;StatisticalScoreServer" style="rounded=0;whiteSpace=wrap;html=1;fillColor=#f8cecc;strokeColor=#b85450;" vertex="1" parent="1">
          <mxGeometry x="770" y="240" width="130" height="40" as="geometry" />
        </mxCell>
        <mxCell id="SneHzdqeoLvJgb-y5VjT-15" style="edgeStyle=orthogonalEdgeStyle;rounded=0;orthogonalLoop=1;jettySize=auto;html=1;" edge="1" parent="1" source="SneHzdqeoLvJgb-y5VjT-6" target="SneHzdqeoLvJgb-y5VjT-14">
          <mxGeometry relative="1" as="geometry" />
        </mxCell>
        <mxCell id="SneHzdqeoLvJgb-y5VjT-6" value="ScoreResultTable" style="rounded=0;whiteSpace=wrap;html=1;fillColor=#d5e8d4;strokeColor=#82b366;" vertex="1" parent="1">
          <mxGeometry x="570" y="310" width="120" height="40" as="geometry" />
        </mxCell>
        <mxCell id="SneHzdqeoLvJgb-y5VjT-18" style="edgeStyle=orthogonalEdgeStyle;rounded=0;orthogonalLoop=1;jettySize=auto;html=1;" edge="1" parent="1" source="SneHzdqeoLvJgb-y5VjT-14" target="SneHzdqeoLvJgb-y5VjT-17">
          <mxGeometry relative="1" as="geometry" />
        </mxCell>
        <mxCell id="SneHzdqeoLvJgb-y5VjT-14" value="&lt;font color=&quot;rgba(0, 0, 0, 0)&quot; face=&quot;monospace&quot;&gt;&lt;span style=&quot;font-size: 0px&quot;&gt;%3CmxGraphModel%3E%3Croot%3E%3CmxCell%20id%3D%220%22%2F%3E%3CmxCell%20id%3D%221%22%20parent%3D%220%22%2F%3E%3CmxCell%20id%3D%222%22%20value%3D%22%E7%BB%9F%E8%AE%A1%E6%89%93%E5%88%86Server%22%20style%3D%22rounded%3D0%3BwhiteSpace%3Dwrap%3Bhtml%3D1%3B%22%20vertex%3D%221%22%20parent%3D%221%22%3E%3CmxGeometry%20x%3D%22490%22%20y%3D%22340%22%20width%3D%22100%22%20height%3D%2240%22%20as%3D%22geometry%22%2F%3E%3C%2FmxCell%3E%3C%2Froot%3E%3C%2FmxGraphModel%3EStatisticalScoreDD&lt;/span&gt;&lt;/font&gt;DataTransferServer" style="rounded=0;whiteSpace=wrap;html=1;fillColor=#f8cecc;strokeColor=#b85450;" vertex="1" parent="1">
          <mxGeometry x="565" y="420" width="130" height="40" as="geometry" />
        </mxCell>
        <mxCell id="SneHzdqeoLvJgb-y5VjT-17" value="ES" style="shape=cylinder3;whiteSpace=wrap;html=1;boundedLbl=1;backgroundOutline=1;size=15;fillColor=#dae8fc;strokeColor=#6c8ebf;" vertex="1" parent="1">
          <mxGeometry x="770" y="400" width="60" height="80" as="geometry" />
        </mxCell>
        <mxCell id="SneHzdqeoLvJgb-y5VjT-20" style="edgeStyle=orthogonalEdgeStyle;rounded=0;orthogonalLoop=1;jettySize=auto;html=1;" edge="1" parent="1" source="SneHzdqeoLvJgb-y5VjT-19" target="SneHzdqeoLvJgb-y5VjT-14">
          <mxGeometry relative="1" as="geometry" />
        </mxCell>
        <mxCell id="SneHzdqeoLvJgb-y5VjT-19" value="Data..." style="shape=cylinder3;whiteSpace=wrap;html=1;boundedLbl=1;backgroundOutline=1;size=15;fillColor=#dae8fc;strokeColor=#6c8ebf;" vertex="1" parent="1">
          <mxGeometry x="400" y="400" width="60" height="80" as="geometry" />
        </mxCell>
      </root>
    </mxGraphModel>
  </diagram>
</mxfile>
